<svg width="40" height="34" viewBox="0 0 40 34" fill="none" xmlns="http://www.w3.org/2000/svg">
<path d="M18.3077 1.42299C17.0874 -0.167367 14.5535 0.511602 14.2919 2.49904L13.5809 7.90039C13.456 8.84878 12.5928 9.5212 11.6427 9.41017L5.34606 8.67437C3.14805 8.41752 1.9386 11.155 3.60857 12.6071L6.15514 14.8213C7.0745 15.6207 6.91608 17.0915 5.84759 17.6768L2.24526 19.65C0.178923 20.7818 1.02132 23.9257 3.37675 23.8727L7.48306 23.7804C8.70104 23.753 9.57362 24.9476 9.17712 26.0995L8.07885 29.2904C7.35864 31.3829 9.77482 33.1489 11.5499 31.8275L16.6351 28.0419C17.4024 27.4707 18.4862 27.6215 19.0685 28.3804L22.3849 32.7026C23.6052 34.2929 26.1391 33.614 26.4007 31.6265L27.1117 26.2252C27.2366 25.2768 28.0998 24.6044 29.0499 24.7154L35.3465 25.4512C37.5445 25.708 38.754 22.9705 37.084 21.5185L34.5375 19.3042C33.6181 18.5049 33.7765 17.0341 34.845 16.4488L38.4473 14.4756C40.5137 13.3438 39.6713 10.1999 37.3158 10.2528L33.2095 10.3451C31.9916 10.3725 31.119 9.17801 31.5155 8.02605L32.6137 4.83517C33.334 2.74268 30.9178 0.976642 29.1427 2.29808L24.0575 6.08365C23.2902 6.65485 22.2064 6.50412 21.6241 5.74521L18.3077 1.42299Z" fill="#00FFA2" stroke="black" stroke-width="0.5" stroke-linecap="round" stroke-linejoin="round"/>
</svg>
